# Blender v2.81 (sub 16) OBJ File: 'Book.blend'
# www.blender.org
mtllib Book.mtl
o Plane
v 12.653866 -0.655886 7.899161
v -9.736172 -0.655886 7.899161
v 12.653866 -0.655886 -8.645070
v -9.736172 -0.655886 -8.645070
vt -0.000215 -0.011406
vt 0.985087 -0.011406
vt 0.985087 0.988428
vt -0.000215 0.988428
vn 0.0000 1.0000 0.0000
usemtl Material.001
s off
f 2/1/1 1/2/1 3/3/1 4/4/1
o Cube.003_Cube.001
v -2.452315 0.099402 0.020666
v -2.452315 0.108013 0.027956
v -2.452315 0.332108 -3.204494
v -2.452315 0.343369 -3.205181
v 2.289618 0.099402 0.020666
v 2.289618 0.108013 0.027956
v 2.289618 0.332108 -3.204494
v 2.289618 0.343369 -3.205181
v -2.452315 0.420787 -0.344477
v -2.452315 0.534384 -0.815898
v -2.452315 0.591335 -1.296944
v -2.452315 0.601392 -1.784301
v -2.452315 0.473232 -2.250216
v -2.452315 0.372812 -2.722370
v -2.452315 0.361551 -2.721683
v -2.452315 0.462196 -2.247875
v -2.452315 0.590513 -1.781312
v -2.452315 0.580057 -1.297224
v -2.452315 0.523178 -0.817206
v -2.452315 0.409817 -0.347110
v 2.289618 0.372812 -2.722370
v 2.289618 0.473232 -2.250216
v 2.289618 0.601392 -1.784301
v 2.289618 0.591335 -1.296943
v 2.289618 0.534384 -0.815898
v 2.289618 0.420787 -0.344477
v 2.289618 0.409817 -0.347111
v 2.289618 0.523178 -0.817206
v 2.289618 0.580057 -1.297225
v 2.289618 0.590513 -1.781312
v 2.289618 0.462195 -2.247875
v 2.289618 0.361551 -2.721683
v -2.495452 0.101864 3.430144
v -2.495452 0.257859 3.362802
v -2.495452 0.101864 3.295291
v -2.495452 0.257859 3.295292
v 2.342280 0.101864 3.430144
v 2.342280 0.257859 3.362802
v 2.342280 0.101864 3.295291
v 2.342280 0.257859 3.295292
v -2.495452 0.287223 2.810779
v -2.495452 0.111260 2.810779
v 2.342280 0.287223 2.810779
v 2.342280 0.111260 2.810779
v -2.495452 0.395848 2.283065
v -2.495452 0.110095 2.283066
v 2.342280 0.395848 2.283065
v 2.342280 0.110095 2.283066
v -2.495452 0.557470 1.566950
v -2.495452 0.112660 1.566950
v 2.342280 0.557470 1.566950
v 2.342280 0.112660 1.566950
v -2.495452 0.480183 0.891850
v -2.495452 0.114708 0.891850
v 2.342280 0.480183 0.891850
v 2.342280 0.114708 0.891850
v -2.495452 0.354705 0.444239
v -2.495452 0.113282 0.444239
v 2.342280 0.354705 0.444239
v 2.342280 0.113282 0.444239
v -2.495452 0.237904 0.263546
v -2.495452 0.051127 0.263546
v 2.342280 0.237904 0.263546
v 2.342280 0.051127 0.263546
v 2.342280 0.114173 -2.272245
v 2.342280 0.395848 -2.272245
v -2.495452 0.107281 -0.416425
v -2.495452 0.347908 -0.416425
v -2.495452 0.113218 -2.799959
v -2.495452 0.287224 -2.799959
v 2.342280 0.107281 -0.416425
v 2.342280 0.347908 -0.416425
v 2.342280 0.113218 -2.799959
v 2.342280 0.287224 -2.799959
v -2.495452 0.111906 -0.881030
v -2.495452 0.480182 -0.881030
v -2.495452 0.257859 -3.284472
v -2.495452 0.108324 -3.284472
v 2.342280 0.111906 -0.881030
v 2.342280 0.480182 -0.881030
v -2.495452 0.257859 -3.351982
v -2.495452 0.108324 -3.419324
v -2.495452 0.111355 -1.556130
v -2.495452 0.557470 -1.556130
v 2.342280 0.257859 -3.284471
v 2.342280 0.108324 -3.284471
v 2.342280 0.111355 -1.556129
v 2.342280 0.557470 -1.556129
v 2.342280 0.257859 -3.351981
v 2.342280 0.108324 -3.419323
v -2.495452 0.114173 -2.272245
v -2.495452 0.395848 -2.272245
v 2.342280 0.112208 1.285192
v 2.342280 0.539381 1.285192
v -2.495452 0.539381 1.285192
v -2.495452 0.112208 1.285192
v -2.495452 0.112738 1.923245
v 2.342280 0.112738 1.923245
v 2.342280 0.508608 1.923245
v -2.495452 0.508608 1.923245
v 2.342280 0.045954 0.014912
v 2.342280 0.085940 0.014912
v -2.495452 0.085940 0.014912
v -2.495452 0.045954 0.014912
v 2.342280 0.237904 -0.252725
v 2.342280 0.051127 -0.252725
v -2.495452 0.237904 -0.252726
v -2.495452 0.051128 -0.252726
v -2.495452 0.109793 -1.274372
v -2.495452 0.539381 -1.274372
v 2.342280 0.539381 -1.274372
v 2.342280 0.109793 -1.274371
v 2.342280 0.121221 -1.912426
v -2.495452 0.121221 -1.912426
v -2.495452 0.508607 -1.912425
v 2.342280 0.508607 -1.912425
v 2.442397 0.048599 -3.505630
v 2.442397 0.048600 3.538240
v -2.614339 0.048600 3.538239
v -2.614338 0.048600 -3.505631
v 2.442399 0.102240 -3.505628
v 2.442396 0.102240 3.538242
v -2.614340 0.102239 3.538239
v -2.614339 0.102239 -3.505630
v 2.451224 0.075420 -3.517922
v 2.451222 0.075419 3.550536
v -2.623165 0.075420 3.550533
v -2.623164 0.075420 -3.517925
v 2.442397 -0.012481 -0.337440
v -2.614339 -0.012481 -0.337441
v 2.442397 0.041159 -0.337438
v -2.614339 0.041159 -0.337440
v -2.623165 0.014339 -0.338676
v 2.451223 0.014339 -0.338673
v 2.442397 -0.012481 0.364772
v 2.442397 0.041159 0.364774
v 2.451223 0.014339 0.365990
v -2.614339 -0.012480 0.364772
v -2.614339 0.041159 0.364772
v -2.623165 0.014339 0.365988
v 2.442397 0.048600 0.445319
v 2.442397 0.102240 0.445321
v 2.451223 0.075420 0.447088
v -2.614339 0.048600 0.445318
v -2.614339 0.102240 0.445318
v -2.623165 0.075420 0.447086
v -2.614339 0.048600 -0.413711
v -2.614339 0.102240 -0.413710
v -2.623165 0.075420 -0.415499
v 2.442397 0.048599 -0.413710
v 2.442397 0.102240 -0.413709
v 2.451223 0.075420 -0.415497
vt 0.339096 0.539060
vt 0.339130 0.573451
vt 0.350067 0.573451
vt 0.350034 0.539060
vt 0.344545 0.619409
vt 0.355482 0.619409
vt 0.333469 0.252383
vt 0.333499 0.286773
vt 0.344436 0.286772
vt 0.344406 0.252382
vt 0.338910 0.332729
vt 0.349846 0.332729
vt 0.412526 0.689162
vt 0.379359 0.689162
vt 0.379358 0.364014
vt 0.412526 0.364014
vt 0.578362 0.013502
vt 0.611529 0.013502
vt 0.611531 0.338650
vt 0.578363 0.338650
vt 0.379358 0.013503
vt 0.412526 0.013503
vt 0.412526 0.338650
vt 0.379359 0.338650
vt 0.445693 0.013502
vt 0.445694 0.338650
vt 0.478860 0.013502
vt 0.478861 0.338650
vt 0.512027 0.013502
vt 0.512029 0.338650
vt 0.545194 0.013502
vt 0.545196 0.338650
vt 0.611530 0.689162
vt 0.578363 0.689162
vt 0.578363 0.364014
vt 0.611531 0.364014
vt 0.545195 0.689162
vt 0.545196 0.364014
vt 0.512028 0.689162
vt 0.512028 0.364014
vt 0.478861 0.689162
vt 0.478861 0.364014
vt 0.445694 0.689162
vt 0.445693 0.364014
vt 0.333289 0.046034
vt 0.333317 0.080421
vt 0.344252 0.080421
vt 0.344225 0.046034
vt 0.333345 0.114811
vt 0.344282 0.114811
vt 0.333375 0.149203
vt 0.344313 0.149203
vt 0.333406 0.183598
vt 0.344344 0.183598
vt 0.333437 0.217991
vt 0.344374 0.217991
vt 0.338941 0.367117
vt 0.349877 0.367117
vt 0.338972 0.401504
vt 0.349907 0.401504
vt 0.339003 0.435890
vt 0.349938 0.435890
vt 0.339033 0.470278
vt 0.349969 0.470278
vt 0.339064 0.504668
vt 0.350001 0.504668
vt 0.859596 0.987086
vt 0.859596 0.981772
vt 0.871876 0.981772
vt 0.871876 0.992387
vt 0.792399 0.979787
vt 0.780436 0.979787
vt 0.781156 0.942628
vt 0.794652 0.942628
vt 0.792399 0.984964
vt 0.780436 0.990129
vt 0.950257 0.471849
vt 0.950257 0.988965
vt 0.988418 0.988966
vt 0.988418 0.471849
vt 0.000000 0.000000
vt 0.000000 0.000000
vt 0.000000 0.000000
vt 0.000000 0.000000
vt 0.323915 0.700660
vt 0.328111 0.700660
vt 0.328111 0.989535
vt 0.323915 0.989535
vt 0.781067 0.902156
vt 0.802982 0.902156
vt 0.000000 0.000000
vt 0.000000 0.000000
vt 0.358277 0.700660
vt 0.358277 0.989534
vt 0.857285 0.943632
vt 0.871136 0.943632
vt 0.000000 0.000000
vt 0.000000 0.000000
vt 0.000000 0.000000
vt 0.000000 0.000000
vt 0.848734 0.902092
vt 0.871228 0.902092
vt 0.000000 0.000000
vt 0.000000 0.000000
vt 0.391760 0.700660
vt 0.391760 0.989534
vt 0.813990 0.825625
vt 0.781229 0.825625
vt 0.781421 0.795458
vt 0.809450 0.795458
vt 0.415194 0.989534
vt 0.415194 0.700660
vt 0.437544 0.700659
vt 0.437544 0.989534
vt 0.811630 0.874560
vt 0.781270 0.874560
vt 0.781264 0.847234
vt 0.815378 0.847234
vt 0.871020 0.873768
vt 0.839858 0.873768
vt 0.836012 0.845721
vt 0.871026 0.845721
vt 0.781311 0.761129
vt 0.799827 0.761129
vt 0.871062 0.823542
vt 0.837436 0.823542
vt 0.842096 0.792579
vt 0.870865 0.792579
vt 0.000000 0.000000
vt 0.000000 0.000000
vt 0.000000 0.000000
vt 0.000000 0.000000
vt 0.455090 0.989533
vt 0.455090 0.700659
vt 0.479810 0.700659
vt 0.479810 0.989533
vt 0.000000 0.000000
vt 0.000000 0.000000
vt 0.000000 0.000000
vt 0.000000 0.000000
vt 0.851973 0.757345
vt 0.870978 0.757345
vt 0.508700 0.700659
vt 0.508700 0.989533
vt 0.780851 0.695122
vt 0.799306 0.695122
vt 0.790869 0.707676
vt 0.776545 0.707676
vt 0.522072 0.700659
vt 0.522072 0.989533
vt 0.776545 0.747271
vt 0.790869 0.747271
vt 0.861168 0.743121
vt 0.875870 0.743121
vt 0.626306 0.700660
vt 0.626306 0.989533
vt 0.601586 0.989533
vt 0.601586 0.700660
vt 0.000000 0.000000
vt 0.000000 0.000000
vt 0.000000 0.000000
vt 0.000000 0.000000
vt 0.781306 0.512319
vt 0.794652 0.512319
vt 0.802982 0.552791
vt 0.781380 0.552791
vt 0.723119 0.700661
vt 0.723119 0.989535
vt 0.689636 0.989534
vt 0.689636 0.700661
vt 0.780931 0.475160
vt 0.792399 0.475160
vt 0.000000 0.000000
vt 0.000000 0.000000
vt 0.000000 0.000000
vt 0.000000 0.000000
vt 0.837436 0.622060
vt 0.871253 0.622060
vt 0.871086 0.653023
vt 0.842096 0.653023
vt 0.852509 0.689595
vt 0.871450 0.689595
vt 0.875870 0.702481
vt 0.861168 0.702481
vt 0.571565 0.700659
vt 0.571565 0.989533
vt 0.559308 0.989533
vt 0.559308 0.700659
vt 0.000000 0.000000
vt 0.000000 0.000000
vt 0.000000 0.000000
vt 0.000000 0.000000
vt 0.781044 0.629322
vt 0.813991 0.629322
vt 0.809450 0.659489
vt 0.781206 0.659489
vt 0.757481 0.989535
vt 0.753285 0.989535
vt 0.753285 0.700662
vt 0.757481 0.700661
vt 0.000000 0.000000
vt 0.000000 0.000000
vt 0.000000 0.000000
vt 0.000000 0.000000
vt 0.857286 0.501970
vt 0.870983 0.501970
vt 0.870908 0.543510
vt 0.848735 0.543510
vt 0.000000 0.000000
vt 0.000000 0.000000
vt 0.781920 0.580387
vt 0.811630 0.580387
vt 0.815378 0.607713
vt 0.781164 0.607713
vt 0.000000 0.000000
vt 0.000000 0.000000
vt 0.839859 0.571834
vt 0.870353 0.571834
vt 0.871130 0.599881
vt 0.836013 0.599881
vt 0.888876 0.468206
vt 0.937526 0.468204
vt 0.937526 0.985721
vt 0.888876 0.985722
vt 0.792399 0.469982
vt 0.780931 0.464817
vt 0.666202 0.700661
vt 0.666202 0.989534
vt 0.643852 0.989534
vt 0.643852 0.700660
vt 0.859598 0.463830
vt 0.871369 0.463830
vt 0.859598 0.458516
vt 0.871369 0.453215
vt 0.540181 0.700659
vt 0.540181 0.989533
vt 0.873130 0.723549
vt 0.876278 0.723549
vt 0.776148 0.728202
vt 0.779215 0.728202
vt 0.310169 0.288444
vt 0.310169 0.496546
vt 0.060820 0.496546
vt 0.060820 0.288444
vt 0.059317 0.766536
vt 0.306576 0.766536
vt 0.306576 0.989828
vt 0.059317 0.989828
vt 0.029965 0.429545
vt 0.034733 0.429566
vt 0.034742 0.505264
vt 0.029965 0.505250
vt 0.034763 0.670131
vt 0.029965 0.670132
vt 0.029966 0.916963
vt 0.034793 0.916939
vt 0.034803 0.992612
vt 0.029966 0.992643
vt 0.029965 0.182739
vt 0.025228 0.182696
vt 0.025248 0.017799
vt 0.029965 0.017857
vt 0.034703 0.182782
vt 0.034682 0.017915
vt 0.025138 0.916987
vt 0.025128 0.992674
vt 0.025188 0.505236
vt 0.025168 0.670134
vt 0.025198 0.429524
vt 0.025219 0.258383
vt 0.029965 0.258419
vt 0.029965 0.335387
vt 0.025209 0.335357
vt 0.025149 0.822822
vt 0.029966 0.822807
vt 0.029966 0.839995
vt 0.025147 0.840012
vt 0.034782 0.822792
vt 0.034784 0.839979
vt 0.034712 0.258455
vt 0.034721 0.335416
vt 0.059317 0.715098
vt 0.306576 0.715098
vt 0.306576 0.729598
vt 0.059317 0.729598
vt 0.310169 0.220146
vt 0.310169 0.235804
vt 0.060820 0.235804
vt 0.060820 0.220146
vt 0.029966 0.745837
vt 0.034772 0.745829
vt 0.025159 0.745845
vt 0.029965 0.352575
vt 0.025207 0.352547
vt 0.034724 0.352603
vt 0.306576 0.783916
vt 0.059317 0.783916
vt 0.310169 0.272550
vt 0.060820 0.272550
vt 0.310169 0.008865
vt 0.060820 0.008864
vt 0.059317 0.506235
vt 0.306576 0.506235
vn -0.7242 0.6833 -0.0930
vn -0.5773 0.5411 -0.6114
vn -0.5773 -0.6114 -0.5411
vn -0.6908 -0.7165 0.0974
vn 0.5773 0.5411 -0.6114
vn 0.5773 -0.6114 -0.5411
vn 0.6590 0.6714 0.3389
vn 0.5771 0.0692 0.8137
vn 0.5774 -0.8136 0.0682
vn 0.7627 -0.5769 -0.2922
vn -0.5771 0.0692 0.8137
vn -0.5774 -0.8136 0.0682
vn 0.6908 -0.7165 0.0974
vn 0.7242 0.6833 -0.0930
vn -0.6590 0.6714 0.3389
vn 0.6940 0.7087 0.1269
vn -0.6940 0.7087 0.1269
vn 0.6963 0.7160 0.0496
vn -0.6963 0.7160 0.0496
vn 0.6761 0.7312 -0.0910
vn -0.6761 0.7312 -0.0910
vn 0.7138 0.6804 -0.1658
vn -0.7138 0.6804 -0.1658
vn -0.7627 -0.5769 -0.2922
vn -0.7207 -0.6824 -0.1223
vn 0.7207 -0.6824 -0.1223
vn -0.7181 -0.6942 -0.0485
vn 0.7181 -0.6942 -0.0485
vn -0.7411 -0.6662 0.0826
vn 0.7411 -0.6662 0.0826
vn -0.7005 -0.6934 0.1688
vn 0.7005 -0.6934 0.1688
vn -0.6019 0.6673 0.4387
vn -0.7140 0.6998 0.0212
vn -0.7049 -0.7092 -0.0069
vn -0.5589 -0.4555 0.6929
vn 0.7140 0.6998 0.0212
vn 0.7049 -0.7092 -0.0069
vn 0.7095 -0.7046 -0.0060
vn 0.7235 0.6843 0.0907
vn 0.6019 0.6673 0.4387
vn 0.5589 -0.4555 0.6929
vn 0.7060 -0.7082 -0.0018
vn 0.7186 0.6732 0.1743
vn -0.7095 -0.7046 -0.0060
vn -0.7235 0.6843 0.0907
vn 0.7079 -0.7062 -0.0025
vn -0.7079 -0.7062 -0.0025
vn -0.7072 -0.7069 0.0006
vn 0.7072 -0.7069 0.0006
vn -0.7186 0.6732 0.1743
vn -0.7060 -0.7082 -0.0018
vn 0.6976 0.7124 -0.0763
vn 0.7062 -0.7080 -0.0017
vn 0.7082 -0.7060 -0.0011
vn 0.6934 0.7045 -0.1511
vn -0.6887 0.7075 0.1582
vn 0.6887 0.7075 0.1582
vn 0.6853 0.7278 0.0263
vn -0.6853 0.7278 0.0263
vn 0.7458 -0.6569 0.1109
vn 0.6749 0.6727 -0.3033
vn -0.7062 -0.7080 -0.0017
vn -0.6976 0.7124 -0.0763
vn -0.6934 0.7045 -0.1511
vn -0.7082 -0.7060 -0.0011
vn -0.7458 -0.6569 0.1109
vn -0.8744 -0.4588 0.1578
vn 0.8744 -0.4588 0.1578
vn -0.6749 0.6727 -0.3033
vn 0.7448 -0.6576 -0.1130
vn 0.6735 0.6705 0.3112
vn 0.7157 0.5940 0.3674
vn 0.8744 -0.4590 -0.1574
vn 0.7100 0.5962 -0.3748
vn -0.7100 0.5962 -0.3748
vn 0.6976 0.7124 0.0763
vn -0.6976 0.7124 0.0763
vn -0.6930 0.7046 0.1527
vn 0.6930 0.7046 0.1527
vn -0.7059 -0.7083 -0.0000
vn 0.7059 -0.7083 -0.0000
vn 0.7088 -0.7053 -0.0016
vn -0.7088 -0.7053 -0.0016
vn 0.7080 -0.7061 0.0042
vn 0.7235 0.6843 -0.0907
vn 0.7186 0.6732 -0.1743
vn 0.7051 -0.7090 0.0076
vn -0.7235 0.6843 -0.0907
vn -0.7186 0.6732 -0.1743
vn 0.7060 -0.7082 0.0036
vn 0.7140 0.6998 -0.0212
vn -0.7080 -0.7061 0.0042
vn -0.7051 -0.7090 0.0076
vn -0.6735 0.6705 0.3112
vn -0.7448 -0.6576 -0.1130
vn -0.8744 -0.4590 -0.1574
vn -0.7157 0.5940 0.3674
vn -0.7125 -0.7017 -0.0028
vn 0.7125 -0.7017 -0.0028
vn 0.7046 -0.7095 -0.0118
vn -0.7046 -0.7095 -0.0118
vn -0.6029 0.6700 -0.4331
vn -0.7140 0.6998 -0.0212
vn 0.6029 0.6700 -0.4331
vn -0.7060 -0.7082 0.0036
vn 0.5583 -0.4504 -0.6967
vn -0.5583 -0.4504 -0.6967
vn 0.6887 0.7075 -0.1582
vn 0.6853 0.7278 -0.0263
vn -0.6887 0.7075 -0.1582
vn -0.6853 0.7278 -0.0263
vn 0.8409 0.5410 -0.0087
vn -0.8409 0.5410 -0.0087
vn -1.0000 0.0000 0.0000
vn 1.0000 0.0000 0.0000
vn 0.6333 -0.7256 0.2691
vn 0.4827 -0.7606 0.4340
vn -0.4827 -0.7607 0.4340
vn -0.6333 -0.7256 0.2691
vn 0.5329 0.8042 -0.2631
vn -0.5329 0.8042 -0.2631
vn -0.4827 0.7606 0.4340
vn 0.4827 0.7606 0.4340
vn 0.9974 0.0570 -0.0431
vn 0.6876 0.0000 0.7261
vn -0.6876 0.0000 0.7261
vn -0.9971 0.0591 0.0471
vn -0.5309 0.8020 0.2736
vn -0.4827 0.7606 -0.4340
vn -0.6876 0.0000 -0.7261
vn 0.6876 0.0000 -0.7261
vn 0.4827 -0.7606 -0.4340
vn -0.4827 -0.7606 -0.4340
vn 0.4827 0.7606 -0.4340
vn -0.6342 -0.7203 -0.2807
vn 0.6342 -0.7203 -0.2807
vn 0.9971 0.0591 0.0471
vn 0.9958 -0.0715 -0.0571
vn 0.5280 -0.8048 -0.2710
vn -0.5301 -0.8069 0.2606
vn -0.9962 -0.0688 0.0520
vn -0.9958 -0.0716 -0.0571
vn -0.5280 -0.8048 -0.2710
vn -0.6423 0.7211 -0.2596
vn -0.6441 0.7155 0.2704
vn 0.5310 0.8020 0.2736
vn 0.6441 0.7155 0.2704
vn -0.9974 0.0570 -0.0431
vn 0.9962 -0.0688 0.0520
vn 0.5301 -0.8069 0.2606
vn 0.6423 0.7211 -0.2596
usemtl Material
s 1
f 18/5/2 8/6/3 7/7/4 19/8/5
f 8/6/3 12/9/6 11/10/7 7/7/4
f 30/11/8 10/12/9 9/13/10 31/14/11
f 10/12/9 6/15/12 5/16/13 9/13/10
f 19/17/5 7/18/4 11/19/7 36/20/14
f 25/21/15 12/22/6 8/23/3 18/24/2
f 10/25/9 30/26/8 13/27/16 6/28/12
f 30/26/8 29/29/17 14/30/18 13/27/16
f 29/29/17 28/31/19 15/32/20 14/30/18
f 28/31/19 27/33/21 16/34/22 15/32/20
f 27/33/21 26/35/23 17/36/24 16/34/22
f 26/35/23 25/21/15 18/24/2 17/36/24
f 5/37/13 24/38/25 31/39/11 9/40/10
f 24/38/25 23/41/26 32/42/27 31/39/11
f 23/41/26 22/43/28 33/44/29 32/42/27
f 22/43/28 21/45/30 34/46/31 33/44/29
f 21/45/30 20/47/32 35/48/33 34/46/31
f 20/47/32 19/17/5 36/20/14 35/48/33
f 12/49/6 25/50/15 36/51/14 11/52/7
f 25/50/15 26/53/23 35/54/33 36/51/14
f 26/53/23 27/55/21 34/56/31 35/54/33
f 27/55/21 28/57/19 33/58/29 34/56/31
f 28/57/19 29/59/17 32/60/27 33/58/29
f 29/59/17 30/11/8 31/14/11 32/60/27
f 6/15/12 13/61/16 24/62/25 5/16/13
f 13/61/16 14/63/18 23/64/26 24/62/25
f 14/63/18 15/65/20 22/66/28 23/64/26
f 15/65/20 16/67/22 21/68/30 22/66/28
f 16/67/22 17/69/24 20/70/32 21/68/30
f 17/69/24 18/5/2 19/8/5 20/70/32
f 38/71/34 40/72/35 39/73/36 37/74/37
f 44/75/38 43/76/39 48/77/40 47/78/41
f 44/75/38 42/79/42 41/80/43 43/76/39
f 42/81/42 38/82/34 37/83/37 41/84/43
f 37/85/37 39/86/36 43/87/39 41/88/43
f 42/89/42 44/90/38 40/91/35 38/92/34
f 47/78/41 48/77/40 52/93/44 51/94/45
f 43/87/39 39/86/36 46/95/46 48/96/40
f 40/91/35 44/90/38 47/97/41 45/98/47
f 39/73/36 40/72/35 45/99/47 46/100/46
f 102/101/48 101/102/49 54/103/50 56/104/51
f 46/100/46 45/99/47 49/105/52 50/106/53
f 48/96/40 46/95/46 50/107/53 52/108/44
f 45/98/47 47/97/41 51/109/45 49/110/52
f 98/111/54 97/112/55 60/113/56 59/114/57
f 104/115/58 103/116/59 55/117/60 53/118/61
f 103/119/59 102/120/48 56/121/51 55/122/60
f 101/123/49 104/124/58 53/125/61 54/126/50
f 59/114/57 60/113/56 64/127/62 63/128/63
f 100/129/64 99/130/65 57/131/66 58/132/67
f 97/133/55 100/134/64 58/135/67 60/136/56
f 99/137/65 98/138/54 59/139/57 57/140/66
f 64/141/62 62/142/68 66/143/69 68/144/70
f 58/132/67 57/131/66 61/145/71 62/146/68
f 60/136/56 58/135/67 62/142/68 64/141/62
f 57/140/66 59/139/57 63/147/63 61/148/71
f 75/149/72 76/150/73 109/151/74 110/152/75
f 61/148/71 63/147/63 67/153/76 65/154/77
f 63/128/63 64/127/62 68/155/70 67/156/76
f 62/146/68 61/145/71 65/157/77 66/158/69
f 115/159/78 114/160/79 80/161/80 84/162/81
f 113/163/82 116/164/83 83/165/84 79/166/85
f 77/167/86 78/168/87 70/169/88 69/170/89
f 78/171/87 74/172/90 96/173/91 70/174/88
f 90/175/92 89/176/93 78/168/87 77/167/86
f 73/177/94 77/178/86 69/179/89 95/180/95
f 114/181/79 113/182/82 79/183/85 80/184/80
f 72/185/96 71/186/97 112/187/98 111/188/99
f 76/189/73 72/190/96 111/191/99 109/192/74
f 118/193/100 117/194/101 91/195/102 87/196/103
f 84/162/81 80/161/80 72/190/96 76/189/73
f 116/197/83 115/198/78 84/199/81 83/200/84
f 85/201/104 81/202/105 89/203/93 93/204/106
f 80/184/80 79/183/85 71/186/97 72/185/96
f 82/205/107 90/206/92 77/178/86 73/177/94
f 89/203/93 81/202/105 74/172/90 78/171/87
f 94/207/108 90/206/92 82/205/107 86/208/109
f 74/209/90 73/210/94 95/211/95 96/212/91
f 79/166/85 83/165/84 75/213/72 71/214/97
f 117/215/101 120/216/110 92/217/111 91/218/102
f 83/200/84 84/199/81 76/150/73 75/149/72
f 71/214/97 75/213/72 110/219/75 112/220/98
f 119/221/112 118/222/100 87/223/103 88/224/113
f 85/225/104 93/226/106 94/227/108 86/228/109
f 93/229/106 89/176/93 90/175/92 94/230/108
f 120/231/110 119/232/112 88/233/113 92/234/111
f 81/235/105 82/236/107 73/210/94 74/209/90
f 81/235/105 85/237/104 86/238/109 82/236/107
f 53/118/61 55/117/60 98/138/54 99/137/65
f 56/104/51 54/103/50 100/134/64 97/133/55
f 54/126/50 53/125/61 99/130/65 100/129/64
f 55/122/60 56/121/51 97/112/55 98/111/54
f 50/106/53 49/105/52 104/124/58 101/123/49
f 51/94/45 52/93/44 102/120/48 103/119/59
f 49/110/52 51/109/45 103/116/59 104/115/58
f 52/108/44 50/107/53 101/102/49 102/101/48
f 65/154/77 67/153/76 106/239/114 107/240/115
f 66/158/69 65/157/77 107/241/115 108/242/116
f 67/156/76 68/155/70 105/243/117 106/244/114
f 92/234/111 88/233/113 114/160/79 115/159/78
f 87/196/103 91/195/102 116/164/83 113/163/82
f 91/218/102 92/217/111 115/198/78 116/197/83
f 88/224/113 87/223/103 113/182/82 114/181/79
f 69/170/89 70/169/88 120/216/110 117/215/101
f 96/212/91 95/211/95 118/222/100 119/221/112
f 70/174/88 96/173/91 119/232/112 120/231/110
f 95/180/95 69/179/89 117/194/101 118/193/100
f 112/187/98 108/242/116 107/241/115 111/188/99
f 109/151/74 106/244/114 105/243/117 110/152/75
f 111/191/99 107/240/115 106/239/114 109/192/74
f 145/245/118 122/246/119 123/247/120 148/248/121
f 146/249/122 149/250/123 127/251/124 126/252/125
f 147/253/126 146/254/122 126/255/125 130/256/127
f 130/256/127 126/255/125 127/257/124 131/258/128
f 153/259/129 152/260/130 128/261/131 132/262/132
f 129/263/133 121/264/134 124/265/135 132/266/132
f 125/267/136 129/263/133 132/266/132 128/268/131
f 151/269/137 153/259/129 132/262/132 124/270/135
f 122/271/119 130/256/127 131/258/128 123/272/120
f 145/273/118 147/253/126 130/256/127 122/271/119
f 154/274/138 156/275/139 138/276/140 133/277/141
f 142/278/142 144/279/143 137/280/144 134/281/145
f 144/279/143 143/282/146 136/283/147 137/280/144
f 156/275/139 155/284/148 135/285/149 138/276/140
f 155/286/148 152/287/130 136/288/147 135/289/149
f 154/290/138 133/291/141 134/292/145 151/293/137
f 150/294/150 149/295/123 143/282/146 144/279/143
f 148/296/121 150/294/150 144/279/143 142/278/142
f 133/277/141 138/276/140 141/297/151 139/298/152
f 138/276/140 135/285/149 140/299/153 141/297/151
f 135/289/149 136/288/147 143/300/146 140/301/153
f 133/291/141 139/302/152 142/303/142 134/292/145
f 123/272/120 131/258/128 150/294/150 148/296/121
f 131/258/128 127/257/124 149/295/123 150/294/150
f 139/298/152 141/297/151 147/253/126 145/273/118
f 141/297/151 140/299/153 146/254/122 147/253/126
f 140/301/153 143/300/146 149/250/123 146/249/122
f 139/302/152 145/245/118 148/248/121 142/303/142
f 121/304/134 154/290/138 151/293/137 124/305/135
f 125/306/136 128/307/131 152/287/130 155/286/148
f 129/263/133 125/267/136 155/284/148 156/275/139
f 121/264/134 129/263/133 156/275/139 154/274/138
f 134/281/145 137/280/144 153/259/129 151/269/137
f 137/280/144 136/283/147 152/260/130 153/259/129
